<?xml version="1.0" encoding="UTF-8" standalone="no"?>
<!-- Created with Inkscape (http://www.inkscape.org/) -->

<svg
   version="1.1"
   id="svg69"
   width="224"
   height="64"
   viewBox="0 0 224 64"
   sodipodi:docname="ball.svg"
   inkscape:export-filename="/home/findlay/Documents/ball.svg"
   inkscape:export-xdpi="96"
   inkscape:export-ydpi="96"
   inkscape:version="1.1 (c4e8f9ed74, 2021-05-24)"
   xmlns:inkscape="http://www.inkscape.org/namespaces/inkscape"
   xmlns:sodipodi="http://sodipodi.sourceforge.net/DTD/sodipodi-0.dtd"
   xmlns="http://www.w3.org/2000/svg"
   xmlns:svg="http://www.w3.org/2000/svg">
  <defs
     id="defs73" />
  <sodipodi:namedview
     id="namedview71"
     pagecolor="#ffffff"
     bordercolor="#666666"
     borderopacity="1.0"
     inkscape:pageshadow="2"
     inkscape:pageopacity="0.0"
     inkscape:pagecheckerboard="0"
     showgrid="false"
     inkscape:zoom="3.8772321"
     inkscape:cx="90.528497"
     inkscape:cy="28.499712"
     inkscape:window-width="1920"
     inkscape:window-height="1007"
     inkscape:window-x="0"
     inkscape:window-y="0"
     inkscape:window-maximized="1"
     inkscape:current-layer="g75" />
  <g
     inkscape:groupmode="layer"
     inkscape:label="Image"
     id="g75">
    <path
       style="fill:#01c3ff;stroke:none;stroke-width:0.32"
       d="m 16.185259,28.132733 c 3.698464,-2.982144 6.69536,-6.979712 10.24,-10.185664 6.7448,-6.100352 14.2064,-10.8918076 22.4,-14.7743356 -2.6832,-1.125894 -7.12928,-0.339648 -9.92,0.195808 -11.289216,2.16608 -22.47216,12.7567356 -22.72,24.7641916 m 19.84,31.68 c 5.49792,-8.82848 14.41152,-16.74784 23.36,-21.94432 3.19424,-1.85472 6.46464,-3.48448 9.92,-4.8 1.19904,-0.45632 3.68768,-0.84992 4.47104,-1.915936 1.28512,-1.748672 -0.35104,-6.316416 -0.95136,-8.139744 -1.97312,-5.994432 -5.65312,-11.32304 -10.87968,-14.9286396 -1.50752,-1.04 -3.54752,-2.633952 -5.44,-2.770368 -3.1184,-0.2248 -7.22272,2.191584 -9.92,3.54 -8.681472,4.3401596 -16.49168,9.8396156 -23.36,16.7190076 -2.295968,2.299648 -6.44336,5.97632 -7.16816,9.28 -0.486752,2.21856 0.795232,5.29792 1.518528,7.36 2.964768,8.45248 10.020096,14.85248 18.449632,17.6 M 173.94526,6.0527334 V 56.932733 h 13.12 V 6.0527334 h -13.12 m 17.28,0 V 56.932733 h 13.12 V 6.0527334 h -13.12 M 92.985261,10.532733 v 46.4 h 20.479999 c 4.28736,0 8.56448,0.39872 12.48,-1.70368 9.47456,-5.08768 8.28544,-19.02272 -1.92,-21.97632 7.7504,-4.592896 8.31552,-16.849056 -0.32,-21.180736 -3.72992,-1.870976 -7.79776,-1.539264 -11.84,-1.539264 H 92.985261 m 13.439999,18.24 v -8.64 c 2.47488,0 6.11392,-0.338432 8.30592,0.98864 2.24544,1.359296 2.50272,4.844288 0.29952,6.373088 -2.27616,1.579424 -5.96608,1.278272 -8.60544,1.278272 m 31.68,-5.44 2.24,8 c 4.4928,-0.195872 15.78688,-4.460864 16.64,3.2 -4.71168,0 -9.52032,-0.35776 -14.08,1.07104 -7.74496,2.42688 -12.07808,11.92224 -5.70112,18.39328 5.49344,5.57408 15.48256,4.56224 20.74112,-0.58432 v 3.52 h 11.52 v -16.96 c 0,-4.00704 0.10976,-8.22976 -1.93408,-11.84 -5.61696,-9.92224 -20.49536,-6.847328 -29.42592,-4.8 m -64.320001,11.84 c -9.18464,4.07136 -17.26624,8.63328 -24.96,15.22528 -3.36,2.87904 -7.28224,6.36384 -9.28,10.37472 12.91232,1.01888 25.18976,-3.04544 31.43808,-15.36 1.36256,-2.68512 3.53728,-7.1664 2.80192,-10.24 m 32.640001,11.84 v -8.64 c 3.0048,0 7.55424,-0.58496 10.2352,0.9888 2.3424,1.37472 2.67392,5.07808 0.2912,6.61824 -2.60896,1.686081 -7.5312,1.03296 -10.5264,1.03296 m 50.56,-5.12 c 0,1.29888 0.0915,2.62016 -0.43744,3.83968 -1.23264,2.841281 -5.88512,4.55104 -8.48768,2.421441 -2.44512,-2.000641 -0.53664,-4.761921 1.88512,-5.549121 0.83776,-0.27264 1.6864,-0.3488 2.56,-0.392 1.504,-0.07424 2.96928,-0.31584 4.48,-0.32 z"
       id="path624" />
  </g>
</svg>
